<?xml version="1.0" encoding="UTF-8" standalone="no" ?>
<!DOCTYPE svg PUBLIC "-//W3C//DTD SVG 1.1//EN" "http://www.w3.org/Graphics/SVG/1.1/DTD/svg11.dtd">
<svg xmlns="http://www.w3.org/2000/svg" xmlns:xlink="http://www.w3.org/1999/xlink" version="1.1" width="168" height="145" viewBox="0 0 168 145" xml:space="preserve">
<desc>Created with Fabric.js 3.6.3</desc>
<defs>
</defs>
<g transform="matrix(3.55 0 0 3.55 83.71 72.73)" id="path4571"  >
<path style="stroke: none; stroke-width: 0.26458335; stroke-dasharray: none; stroke-linecap: butt; stroke-dashoffset: 0; stroke-linejoin: miter; stroke-miterlimit: 4; fill: rgb(11,69,127); fill-rule: nonzero; opacity: 1;"  transform=" translate(-46.52, 2.13)" d="M 45.122406 -22.597958 C 39.813841 -22.496929 33.42118 -21.575056 29.708359 -19.346993 C 27.314337 -17.895769 24.370716 -14.940596 23.467397 -10.390951 C 22.564078 -5.8413056 22.981633 -1.4101666 23.87254 3.1441404 C 24.763448 7.6984454 26.547906 12.796826 31.491196 15.422977 C 36.434487 18.049125 39.74984 18.360698 46.524905 18.341145 C 53.29997 18.360698 56.615323 18.049127 61.558613 15.422977 C 66.501899 12.796826 68.28636 7.6984454 69.177268 3.1441404 C 70.068175 -1.4101666 70.48573 -5.8413056 69.582411 -10.390951 C 68.679092 -14.940596 65.73547 -17.895769 63.341449 -19.346993 C 58.51766 -22.000499 53.210544 -22.509459 47.927403 -22.597958 C 46.96517 -22.591553 46.013395 -22.608692 45.122406 -22.597958 Z M 52.035163 -21.373226 C 53.995427 -21.18621 58.900418 -20.806035 62.571469 -18.617322 C 66.24252 -16.428608 67.883466 -13.645269 68.569036 -10.269511 C 69.254608 -6.8937526 69.19495 -2.6243956 68.245025 2.7793044 C 67.295099 8.1830064 64.637023 12.678935 61.031512 14.572383 C 57.425998 16.465834 52.848731 17.467835 46.524905 17.370146 C 40.201079 17.467835 35.623809 16.465832 32.018296 14.572383 C 28.412785 12.678935 25.754708 8.1830064 24.804783 2.7793044 C 23.854857 -2.6243956 23.795199 -6.8937526 24.480771 -10.269511 C 25.166341 -13.645269 26.807287 -16.428608 30.478338 -18.617322 C 34.14939 -20.806034 39.054383 -21.18621 41.014647 -21.373226 C 44.675544 -21.677106 48.42022 -21.700949 52.035163 -21.373226 Z M 45.308958 -20.433749 C 42.299754 -20.396227 39.078366 -20.027985 36.873813 -19.554216 C 34.354325 -19.012766 33.49289 -18.821586 31.320147 -17.521782 C 29.147402 -16.221976 26.475714 -13.575507 25.655893 -9.5005656 C 24.836064 -5.4256266 25.215269 -1.4563896 26.02383 2.6227254 C 26.832394 6.7018444 28.451753 11.268357 32.938136 13.620503 C 40.394345 17.503913 52.842567 17.349299 60.111673 13.620503 C 64.598056 11.268359 66.217414 6.7018444 67.025978 2.6227254 C 67.834539 -1.4563896 68.213743 -5.4256256 67.393913 -9.5005656 C 66.574091 -13.575507 63.902405 -16.221975 61.72966 -17.521782 C 59.556918 -18.821586 58.69548 -19.012767 56.175996 -19.554216 C 53.971442 -20.027985 50.750056 -20.396227 47.740851 -20.433749 C 46.906513 -20.427408 46.081563 -20.442877 45.308958 -20.433749 Z M 51.227459 -18.474178 C 52.045588 -18.397449 53.459587 -18.280368 55.058234 -17.9724 C 55.294891 -17.923666 55.428053 -17.847129 55.376044 -17.622034 C 52.805191 -11.386568 50.059165 -5.1486346 47.194631 1.0869014 C 46.808488 1.9138384 46.320569 1.9456654 45.925458 1.2398644 C 43.035452 -5.0466436 40.26565 -11.335558 37.673764 -17.622034 C 37.621756 -17.847131 37.754918 -17.923664 37.991574 -17.9724 C 39.590223 -18.280368 41.004219 -18.397449 41.822349 -18.474178 C 44.946468 -18.731222 48.152846 -18.748631 51.227459 -18.474178 Z M 35.406719 -17.294405 C 35.553102 -17.298116 35.60211 -17.201438 35.596889 -17.018453 L 35.598956 -17.024138 V -6.5317546 C 35.598956 -3.2201886 36.140373 -1.6670006 37.605035 1.0331584 L 44.624246 13.958984 C 44.863911 14.415729 44.475131 14.385884 44.052704 14.390482 C 39.867407 14.210748 36.662772 13.396988 34.051763 12.049023 C 30.93736 10.441182 28.64115 6.6237844 27.820619 2.0351644 C 27.000083 -2.5534506 26.948345 -6.1787296 27.540533 -9.0452966 C 28.132724 -11.91186 29.550082 -14.275697 32.721095 -16.134269 C 33.511784 -16.597702 34.368907 -16.965563 35.236187 -17.259266 C 35.303417 -17.281024 35.360343 -17.293229 35.406719 -17.294405 Z M 57.643089 -17.294405 C 57.689465 -17.293229 57.74639 -17.281024 57.813621 -17.259266 C 58.680899 -16.965563 59.538024 -16.597702 60.328713 -16.134269 C 63.499725 -14.275697 64.917085 -11.91186 65.509275 -9.0452966 C 66.101463 -6.1787306 66.049724 -2.5534506 65.229187 2.0351644 C 64.408656 6.6237844 62.112449 10.441179 58.998044 12.049023 C 56.387038 13.396988 53.182402 14.210748 48.997105 14.390482 C 48.574678 14.385884 48.185897 14.415726 48.425564 13.958984 L 55.444772 1.0331584 C 56.909437 -1.6669986 57.450853 -3.2201886 57.450853 -6.5317546 V -17.024138 L 57.45292 -17.018453 C 57.4477 -17.201438 57.496706 -17.298117 57.643089 -17.294405 Z" stroke-linecap="round" />
</g>
<g transform="matrix(3.55 0 0 3.55 213.4 13.75)" id="path4667"  >
<path style="stroke: none; stroke-width: 0.26458326; stroke-dasharray: none; stroke-linecap: butt; stroke-dashoffset: 0; stroke-linejoin: miter; stroke-miterlimit: 4; fill: rgb(0,0,255); fill-rule: nonzero; opacity: 1;"  transform=" translate(-83.03, 18.73)" d="M 83.010726 -18.890234 V -18.858336 H 83.045402 V -18.890234 Z M 82.927827 -18.888582 C 82.91616 -18.888582 82.905583 -18.887055 82.896095 -18.884002 C 82.886717 -18.881058 82.878975 -18.877022 82.872868 -18.871898 C 82.866545 -18.866663 82.861802 -18.860721 82.858638 -18.854069 C 82.855585 -18.847418 82.854058 -18.840329 82.854058 -18.832803 C 82.854058 -18.82081 82.857383 -18.810668 82.864034 -18.802381 C 82.870796 -18.794202 82.882191 -18.787985 82.898223 -18.783734 C 82.904002 -18.782206 82.910381 -18.780788 82.917359 -18.77948 C 82.924448 -18.778172 82.930172 -18.777028 82.934535 -18.776044 C 82.94631 -18.773427 82.954272 -18.770265 82.958417 -18.766558 C 82.96256 -18.76285 82.964631 -18.757398 82.964631 -18.750202 C 82.964631 -18.740822 82.960815 -18.733953 82.953182 -18.729591 C 82.945547 -18.72523 82.93497 -18.723048 82.92145 -18.723048 C 82.910544 -18.723048 82.899147 -18.725174 82.887263 -18.729427 C 82.875377 -18.73379 82.86458 -18.739623 82.854876 -18.74693 H 82.85324 V -18.712417 C 82.860875 -18.708598 82.870307 -18.705056 82.881536 -18.701784 C 82.892879 -18.698622 82.905309 -18.69704 82.91883 -18.69704 C 82.942714 -18.69704 82.961522 -18.702384 82.975264 -18.71307 C 82.989111 -18.723757 82.996037 -18.737441 82.996037 -18.754125 C 82.996037 -18.76743 82.992166 -18.778116 82.984424 -18.786188 C 82.976681 -18.794147 82.965667 -18.799763 82.951382 -18.803035 C 82.946693 -18.804126 82.940803 -18.805324 82.933717 -18.806632 C 82.926737 -18.807942 82.920412 -18.80925 82.914744 -18.810559 C 82.904491 -18.812957 82.897076 -18.816066 82.892498 -18.819881 C 82.887807 -18.823699 82.885462 -18.829369 82.885462 -18.836893 C 82.885462 -18.845399 82.889334 -18.851778 82.897076 -18.856032 C 82.90482 -18.860392 82.914306 -18.862572 82.925538 -18.862572 C 82.936334 -18.862572 82.947346 -18.860555 82.95858 -18.856521 C 82.969812 -18.852596 82.97935 -18.847744 82.987203 -18.841963 H 82.988839 V -18.874842 C 82.981424 -18.878658 82.9721 -18.881876 82.960869 -18.884492 C 82.949748 -18.887218 82.938732 -18.888582 82.927827 -18.888582 Z M 82.974577 -18.827751 V -18.801904 H 83.012688 V -18.654692 C 83.012688 -18.645861 83.012307 -18.638389 83.011544 -18.632284 C 83.010889 -18.626067 83.009361 -18.620778 83.006964 -18.616415 C 83.004564 -18.612055 83.000965 -18.608783 82.996167 -18.606602 C 82.99137 -18.60442 82.985044 -18.603332 82.977194 -18.603332 C 82.972288 -18.603332 82.967216 -18.604096 82.961981 -18.605621 C 82.956857 -18.607149 82.952766 -18.608511 82.949713 -18.60971 H 82.948077 V -18.580432 C 82.952875 -18.579124 82.958819 -18.578032 82.965908 -18.577159 C 82.973104 -18.576287 82.978883 -18.575852 82.983245 -18.575852 C 83.001565 -18.575852 83.016176 -18.581304 83.027081 -18.592207 C 83.037986 -18.603112 83.043439 -18.619253 83.043439 -18.640626 V -18.827751 Z M 83.127154 -18.822761 C 83.116142 -18.822761 83.104963 -18.82178 83.093622 -18.819815 C 83.082282 -18.817853 83.073613 -18.816056 83.067615 -18.814419 V -18.783177 H 83.069251 C 83.07983 -18.787211 83.09008 -18.790263 83.100002 -18.792337 C 83.109926 -18.794517 83.11892 -18.795607 83.126991 -18.795607 C 83.133642 -18.795607 83.140024 -18.795172 83.146129 -18.7943 C 83.152234 -18.793427 83.157472 -18.791736 83.16183 -18.78923 C 83.166412 -18.78661 83.169902 -18.783014 83.1723 -18.778433 C 83.174809 -18.773853 83.176064 -18.768074 83.176064 -18.761094 V -18.756351 C 83.158179 -18.755479 83.14144 -18.754171 83.125846 -18.752426 C 83.110252 -18.750681 83.096895 -18.747356 83.085772 -18.742448 C 83.074758 -18.737541 83.066253 -18.730779 83.060254 -18.722165 C 83.054366 -18.713659 83.051422 -18.702482 83.051422 -18.688633 C 83.051422 -18.671731 83.057147 -18.657828 83.068598 -18.646923 C 83.080045 -18.636017 83.094005 -18.630565 83.11047 -18.630565 C 83.119412 -18.630565 83.12721 -18.631437 83.133862 -18.633182 C 83.140513 -18.634819 83.146403 -18.63689 83.151527 -18.639399 C 83.15589 -18.641361 83.160359 -18.643977 83.164939 -18.647249 C 83.169628 -18.65063 83.173336 -18.653248 83.176064 -18.655101 V -18.635637 H 83.206649 V -18.759621 C 83.206649 -18.771399 83.20485 -18.781269 83.201253 -18.78923 C 83.197655 -18.797189 83.19242 -18.803677 83.185551 -18.808693 C 83.178571 -18.813819 83.170283 -18.817418 83.160685 -18.819489 C 83.151199 -18.821671 83.140024 -18.822761 83.127154 -18.822761 Z M 83.176064 -18.731488 V -18.680617 C 83.168429 -18.67473 83.160141 -18.669658 83.151199 -18.665406 C 83.142258 -18.661261 83.132389 -18.65919 83.121595 -18.65919 C 83.108616 -18.65919 83.098966 -18.661807 83.092641 -18.667042 C 83.086318 -18.672384 83.083154 -18.680291 83.083154 -18.690759 C 83.083154 -18.70003 83.085881 -18.70728 83.091333 -18.712515 C 83.096786 -18.717859 83.103929 -18.721784 83.112761 -18.72429 C 83.120176 -18.726362 83.130206 -18.727944 83.142857 -18.729036 C 83.155616 -18.730126 83.166684 -18.730944 83.176064 -18.731488 Z" stroke-linecap="round" />
</g>
</svg>