<?xml version="1.0" encoding="UTF-8"?>
<svg id="Layer_1" data-name="Layer 1" xmlns="http://www.w3.org/2000/svg" viewBox="0 0 612 149.28">
  <defs>
    <style>
      .cls-1 {
        fill: #0c050d;
      }
    </style>
  </defs>
  <path class="cls-1" d="M46.55,32.87c1.66-1.6,3.64-2.83,5.92-3.72,2.29-.89,4.76-1.33,7.42-1.33s5.04.43,7.28,1.3c2.24.86,4.31,2.23,6.22,4.09l4.12-4.12c-2.13-2.39-4.72-4.19-7.78-5.39-3.06-1.2-6.43-1.8-10.11-1.8s-6.96.59-9.98,1.76c-3.02,1.17-5.64,2.84-7.88,4.99-2.24,2.15-3.98,4.67-5.22,7.55-1.24,2.88-1.86,6.05-1.86,9.51s.62,6.63,1.86,9.51c1.24,2.88,2.97,5.4,5.19,7.55,2.22,2.15,4.83,3.81,7.85,4.99,3.02,1.18,6.32,1.76,9.91,1.76,3.28,0,6.46-.5,9.54-1.5,3.08-1,5.77-2.47,8.08-4.42v-18.16h-6.38v15.12c-1.2.79-2.45,1.42-3.76,1.87-2.28.78-4.67,1.17-7.15,1.17-2.66,0-5.12-.44-7.38-1.33-2.26-.89-4.22-2.14-5.89-3.76-1.66-1.62-2.95-3.53-3.86-5.72-.91-2.2-1.37-4.56-1.37-7.08s.46-4.96,1.37-7.15c.91-2.2,2.19-4.09,3.86-5.69Z"/>
  <path class="cls-1" d="M118.42,52.89c2.88-1.29,5.1-3.14,6.65-5.55,1.55-2.42,2.33-5.31,2.33-8.68s-.78-6.27-2.33-8.71c-1.55-2.44-3.77-4.3-6.65-5.59-2.88-1.28-6.36-1.93-10.44-1.93h-18.16v46.56h6.65v-14.17h11.5c1.02,0,2.01-.04,2.96-.12l10.01,14.29h7.25l-11.06-15.62c.43-.16.88-.3,1.29-.48ZM107.78,49.17h-11.31v-20.95h11.31c4.25,0,7.48.91,9.68,2.72,2.19,1.82,3.29,4.39,3.29,7.72s-1.1,5.91-3.29,7.75c-2.2,1.84-5.42,2.76-9.68,2.76Z"/>
  <path class="cls-1" d="M170.69,48.64c0,5.19-1.14,8.98-3.43,11.37-2.28,2.39-5.53,3.59-9.74,3.59s-7.39-1.2-9.68-3.59c-2.28-2.39-3.43-6.19-3.43-11.37v-26.21h-6.65v26.47c0,6.74,1.75,11.86,5.25,15.36,3.5,3.5,8.31,5.26,14.43,5.26s10.99-1.75,14.46-5.26c3.48-3.5,5.22-8.62,5.22-15.36v-26.47h-6.45v26.21Z"/>
  <path class="cls-1" d="M219.37,24.36c-2.88-1.28-6.36-1.93-10.44-1.93h-18.16v46.56h6.65v-14.1h11.51c4.08,0,7.56-.65,10.44-1.96,2.88-1.31,5.1-3.17,6.65-5.59,1.55-2.42,2.33-5.31,2.33-8.68s-.78-6.27-2.33-8.71c-1.55-2.44-3.77-4.3-6.65-5.59ZM218.41,46.38c-2.2,1.82-5.42,2.72-9.68,2.72h-11.31v-20.88h11.31c4.25,0,7.48.91,9.68,2.72,2.19,1.82,3.29,4.39,3.29,7.72s-1.1,5.9-3.29,7.72Z"/>
  <path class="cls-1" d="M282.66,36.2c-1.22-2.88-2.95-5.4-5.19-7.55-2.24-2.15-4.85-3.81-7.85-4.99s-6.26-1.76-9.81-1.76-6.9.6-9.91,1.8c-3.02,1.2-5.63,2.87-7.85,5.02-2.22,2.15-3.95,4.67-5.19,7.55-1.24,2.88-1.86,6.03-1.86,9.45s.62,6.56,1.86,9.44c1.24,2.88,2.97,5.4,5.19,7.55,2.22,2.15,4.84,3.82,7.88,5.02,3.04,1.2,6.33,1.8,9.88,1.8s6.82-.59,9.81-1.76c2.99-1.17,5.61-2.84,7.85-4.99,2.24-2.15,3.97-4.67,5.19-7.55,1.22-2.88,1.83-6.05,1.83-9.51s-.61-6.63-1.83-9.51ZM276.47,52.83c-.91,2.17-2.17,4.07-3.79,5.69-1.62,1.62-3.53,2.87-5.72,3.76-2.19.89-4.58,1.33-7.15,1.33s-5.02-.44-7.22-1.33c-2.2-.89-4.11-2.14-5.75-3.76-1.64-1.62-2.92-3.51-3.82-5.69-.91-2.17-1.37-4.54-1.37-7.11s.46-4.94,1.37-7.12c.91-2.17,2.18-4.07,3.82-5.69,1.64-1.62,3.56-2.87,5.75-3.76,2.19-.89,4.6-1.33,7.22-1.33s4.95.45,7.15,1.33c2.2.89,4.1,2.14,5.72,3.76,1.62,1.62,2.88,3.51,3.79,5.69.91,2.17,1.36,4.55,1.36,7.12s-.46,4.94-1.36,7.11Z"/>
  <g>
    <polygon class="cls-1" points="391.41 19.28 353.45 106.35 353.45 106.35 353.45 106.35 315.48 19.28 296.34 19.28 344.31 129.37 362.59 129.37 410.55 19.28 391.41 19.28"/>
    <polygon class="cls-1" points="576.35 19.28 485.86 19.28 485.86 35.37 551.17 35.37 488.61 111.76 448.32 19.28 430.04 19.28 382.08 129.37 401.22 129.37 439.18 42.3 439.18 42.31 439.18 42.3 477.15 129.37 576.35 129.37 576.35 113.29 509.92 113.29 576.35 32.17 576.35 19.28"/>
  </g>
</svg>